<svg xmlns="http://www.w3.org/2000/svg" width="37" height="31" viewBox="0 0 37 31"><g><g><path fill="#465ce4" d="M35.196 22.004a6.667 6.667 0 1 0-13.334 0 6.667 6.667 0 0 0 13.334 0zM21.862 17.02a8.312 8.312 0 0 1 6.667-3.35 8.28 8.28 0 0 1 4.195 1.141L28.22 3.961h.004a3.328 3.328 0 0 0-3.028-1.957 3.322 3.322 0 0 0-3.304 3.04l-.033.005zM20.196 7.004h-3.334V18.67h3.334zm0 13.333h-3.334v1.667h3.334zM15.199 5.049l-.033-.005a3.323 3.323 0 0 0-3.304-3.04A3.326 3.326 0 0 0 8.835 3.96h.003L4.334 14.811a8.28 8.28 0 0 1 4.195-1.14 8.311 8.311 0 0 1 6.668 3.35zm-.003 16.955a6.667 6.667 0 1 0-13.334 0 6.667 6.667 0 0 0 13.334 0zm21.666 0a8.335 8.335 0 1 1-16.5 1.667h-3.667a8.335 8.335 0 0 1-16.5-1.667c0-1.307.31-2.538.846-3.64L7.15 3.672l.019.003c.687-1.94 2.52-3.337 4.694-3.337a5 5 0 0 1 5 5h3.334a5 5 0 0 1 5-5c2.175 0 4.007 1.397 4.695 3.337l.018-.003 6.108 14.694a8.28 8.28 0 0 1 .845 3.639zm-7.5-4.167c0 .46-.372.833-.833.833a3.334 3.334 0 0 0-3.333 3.334.833.833 0 1 1-1.667 0 5 5 0 0 1 5-5c.46 0 .833.373.833.833zm-20 0c0 .46-.372.833-.833.833a3.334 3.334 0 0 0-3.333 3.334.833.833 0 1 1-1.667 0 5 5 0 0 1 5-5c.46 0 .833.373.833.833z"/></g></g></svg>