<svg xmlns="http://www.w3.org/2000/svg" width="37" height="37" viewBox="0 0 37 37"><g><g><path fill="#465ce4" d="M33.33 4.57c0 .461-.374.834-.834.834H14.162a.833.833 0 1 1 0-1.667h18.334c.46 0 .833.373.833.834zm-21.668 0a.833.833 0 1 1-1.666 0 .833.833 0 0 1 1.666 0zm23.334-.833c0-.92-.747-1.667-1.667-1.667h-30c-.92 0-1.667.747-1.667 1.667v3.334h33.334zm0 5H1.662v25c0 .92.747 1.667 1.667 1.667h30c.92 0 1.667-.747 1.667-1.667zm1.666-5v30a3.334 3.334 0 0 1-3.333 3.334h-30a3.333 3.333 0 0 1-3.333-3.334v-30A3.334 3.334 0 0 1 3.329.404h30a3.334 3.334 0 0 1 3.333 3.333zM8.33 4.571a.833.833 0 1 1-1.666 0 .833.833 0 0 1 1.666 0zm-3.333 0a.833.833 0 1 1-1.666 0 .833.833 0 0 1 1.666 0z"/></g></g></svg>