<svg xmlns="http://www.w3.org/2000/svg" width="38" height="34" viewBox="0 0 38 34"><g><g><path fill="#465ce4" d="M37.262 11.92C37.262 5.708 31.293.67 23.93.67c-5.5 0-10.22 2.811-12.257 6.823a17.32 17.32 0 0 1 2.008-.147c1.98-2.98 5.832-5.009 10.25-5.009 6.432 0 11.666 4.3 11.666 9.584 0 2.573-1.24 4.993-3.493 6.816a1.668 1.668 0 0 0-.554 1.754l.693 2.425-3.446-1.326a11.146 11.146 0 0 1-.341 1.655l6.307 2.425-1.61-5.638c2.53-2.046 4.11-4.92 4.11-8.112zM13.93 29.838a14.04 14.04 0 0 1-3.003-.335 1.645 1.645 0 0 0-.955.071L5.616 31.25l.693-2.425a1.665 1.665 0 0 0-.554-1.753c-2.252-1.824-3.493-4.244-3.493-6.817 0-5.284 5.234-9.583 11.667-9.583s11.667 4.299 11.667 9.583-5.234 9.583-11.667 9.583zm0-20.833C6.566 9.004.596 14.04.596 20.254c0 3.192 1.582 6.065 4.111 8.112l-1.611 5.638 7.474-2.874c1.075.235 2.196.374 3.36.374 7.362 0 13.332-5.037 13.332-11.25s-5.97-11.25-13.333-11.25z"/></g></g></svg>