<svg xmlns="http://www.w3.org/2000/svg" width="38" height="37" viewBox="0 0 38 37"><g><g><path fill="#465ce4" d="M36.191 11.865a18.25 18.25 0 0 1 1.271 6.672c0 10.126-8.208 18.334-18.333 18.334C9.004 36.87.796 28.663.796 18.537.796 8.412 9.004.204 19.129.204c5.11 0 9.711 2.107 13.03 5.483.035.025.076.038.106.068a.83.83 0 1 1-1.138 1.209l-.01.01A16.593 16.593 0 0 0 19.128 1.87c-9.204 0-16.667 7.462-16.667 16.667 0 9.205 7.463 16.667 16.667 16.667 9.205 0 16.667-7.462 16.667-16.667 0-2.176-.43-4.248-1.189-6.154l.018-.005a.83.83 0 0 1 .186-.858.834.834 0 0 1 1.178-.01.825.825 0 0 1 .202.355zm-3.469-2.941l-.004-.007L33.88 7.7a.07.07 0 0 1 .005.007l2.142-2.244.002.002a.829.829 0 1 1 1.2 1.146l.003.003-2.394 2.508.002.004-1.19 1.248c0-.002-.002-.003-.003-.005L19.732 24.947l-.002-.004a.825.825 0 0 1-1.19.017l-8.333-8.333a.833.833 0 1 1 1.178-1.18l7.73 7.731z"/></g></g></svg>