<svg xmlns="http://www.w3.org/2000/svg" width="37" height="31" viewBox="0 0 37 31"><g><g><path fill="#465ce4" d="M37.062 28.237c0 .461-.373.834-.833.834H9.562a.833.833 0 1 1 0-1.667H36.23c.46 0 .833.374.833.833zm0-16.667c0 .46-.373.835-.833.835H9.562a.834.834 0 0 1 0-1.668H36.23c.46 0 .833.374.833.833zM5.396 3.237a2.5 2.5 0 1 1-5 0 2.5 2.5 0 0 1 5 0zm31.666 16.667c0 .46-.373.833-.833.833H9.562a.833.833 0 1 1 0-1.666H36.23c.46 0 .833.373.833.833zM8.73 3.237c0-.46.373-.833.833-.833H36.23a.834.834 0 0 1 0 1.666H9.562a.833.833 0 0 1-.833-.833zM5.396 19.904a2.5 2.5 0 1 1-5 0 2.5 2.5 0 0 1 5 0zm0 8.333a2.5 2.5 0 1 1-5 0 2.5 2.5 0 0 1 5 0zm0-16.667a2.5 2.5 0 1 1-5 .001 2.5 2.5 0 0 1 5 0z"/></g></g></svg>