<svg xmlns="http://www.w3.org/2000/svg" width="47" height="47" viewBox="0 0 47 47"><g><g><path fill="#ccc" d="M14.825 14.433a1.05 1.05 0 1 1-2.099 0 1.05 1.05 0 0 1 2.099 0zm18.9 0c0 .58-.47 1.05-1.05 1.05h-14.7a1.05 1.05 0 1 1 0-2.1h14.7c.58 0 1.05.47 1.05 1.05zm2.1-1.05a2.1 2.1 0 0 0-2.1-2.1h-29.4a2.1 2.1 0 0 0-2.1 2.1v4.2h33.6zm0 6.3h-33.6v23.1c0 1.16.94 2.1 2.1 2.1h29.4a2.1 2.1 0 0 0 2.1-2.1zm2.1-6.3v29.4a4.2 4.2 0 0 1-4.2 4.2h-29.4a4.2 4.2 0 0 1-4.2-4.2v-29.4a4.2 4.2 0 0 1 4.2-4.2h29.4a4.2 4.2 0 0 1 4.2 4.2zm8.4-8.4v29.4a4.2 4.2 0 0 1-4.2 4.2h-1.05a1.05 1.05 0 0 1 0-2.1h1.05a2.1 2.1 0 0 0 2.1-2.1v-29.4a2.1 2.1 0 0 0-2.1-2.1h-29.4a2.1 2.1 0 0 0-2.1 2.1v1.05a1.05 1.05 0 1 1-2.1 0v-1.05a4.2 4.2 0 0 1 4.2-4.2h29.4a4.2 4.2 0 0 1 4.2 4.2zm-39.9 9.45a1.05 1.05 0 1 1-2.1 0 1.05 1.05 0 0 1 2.1 0zm4.2 0a1.05 1.05 0 1 1-2.1 0 1.05 1.05 0 0 1 2.1 0z"/></g></g></svg>