<svg xmlns="http://www.w3.org/2000/svg" width="47" height="34" viewBox="0 0 47 34"><g><g><path fill="#ccc" d="M25.72 23.102c.1.182.15.405.15.672 0 .571-.162.987-.487 1.249-.325.263-.62.41-1.127.45v-3.326c.215.056.306.122.513.2.206.075.393.175.557.299.164.124.296.276.395.456zm-3.369-5.417c.277-.214.55-.322 1.058-.322v2.856c-.198-.047-.273-.107-.466-.179a1.865 1.865 0 0 1-.506-.277 1.448 1.448 0 0 1-.361-.415 1.154 1.154 0 0 1-.14-.585c0-.505.138-.863.415-1.078zm5.125 5.86c0-.513-.094-.947-.282-1.3a2.73 2.73 0 0 0-.747-.884 4.193 4.193 0 0 0-1.072-.586c-.404-.152-.697-.284-1.12-.4v-3.012c.507 0 .756.13.987.385.23.258.355.63.373 1.115h1.607c0-.467-.082-.876-.246-1.228a2.457 2.457 0 0 0-.663-.87 2.777 2.777 0 0 0-.98-.515 3.312 3.312 0 0 0-1.077-.17v-.938h-.847v.937c-.424 0-.708.061-1.093.185a3.228 3.228 0 0 0-1.022.535 2.552 2.552 0 0 0-.705.872c-.175.347-.26.749-.26 1.206 0 .523.093.962.28 1.313.189.353.435.645.74.878.306.234.65.424 1.03.57.382.149.644.274 1.03.38v3.455c-.65-.02-.995-.21-1.276-.571-.283-.362-.418-.858-.41-1.485h-1.606c-.01.533.068 1.004.232 1.413.164.41.398.755.698 1.034.3.281.663.498 1.086.65.423.153.768.233 1.276.243v.976h.847v-.976c.47-.019.786-.098 1.19-.236a3.105 3.105 0 0 0 1.057-.6c.3-.26.539-.589.712-.984.174-.395.261-.859.261-1.392zm4.749-2.11a8.4 8.4 0 1 1-16.8 0 8.4 8.4 0 0 1 16.8 0zm-18.9-7.35c0 .58-.47 1.05-1.05 1.05h-2.1a1.05 1.05 0 1 1 0-2.1h2.1c.58 0 1.05.47 1.05 1.05zm25.2 14.7c0 .58-.47 1.05-1.05 1.05h-2.1a1.05 1.05 0 1 1 0-2.1h2.1c.58 0 1.05.47 1.05 1.05zm6.3-16.8a1.05 1.05 0 1 0-2.099-.001 1.05 1.05 0 0 0 2.099 0zm0 2.958a3.14 3.14 0 0 1-1.05.192 3.15 3.15 0 0 1-3.15-3.15c0-.37.076-.72.193-1.05H6.832c.117.33.193.68.193 1.05a3.15 3.15 0 0 1-3.15 3.15c-.37 0-.72-.076-1.05-.192v12.985c.33-.117.68-.193 1.05-.193a3.15 3.15 0 0 1 3.15 3.15c0 .37-.076.72-.193 1.05h33.986a3.134 3.134 0 0 1-.193-1.05 3.15 3.15 0 0 1 3.15-3.15c.37 0 .72.076 1.05.193zm0 15.942a1.05 1.05 0 1 0-2.1 0 1.05 1.05 0 0 0 2.1 0zm-39.9 0a1.05 1.05 0 1 0-2.1 0 1.05 1.05 0 0 0 2.1 0zm-2.1-18.9a1.05 1.05 0 1 0 2.099.001 1.05 1.05 0 0 0-2.1-.001zm44.1-1.05v21a2.1 2.1 0 0 1-2.1 2.1h-42a2.1 2.1 0 0 1-2.1-2.1v-21c0-1.16.94-2.1 2.1-2.1h42c1.16 0 2.1.94 2.1 2.1zm-42-5.25c0-.58.47-1.05 1.05-1.05h35.7a1.05 1.05 0 1 1 0 2.1h-35.7c-.58 0-1.05-.47-1.05-1.05zm4.2-4.2c0-.58.47-1.05 1.05-1.05h27.3a1.05 1.05 0 1 1 0 2.1h-27.3a1.05 1.05 0 0 1-1.05-1.05z"/></g></g></svg>