<svg xmlns="http://www.w3.org/2000/svg" width="47" height="47" viewBox="0 0 47 47"><g><g><path fill="#ccc" d="M27.729 24.26a1.05 1.05 0 1 1 2.1 0 1.05 1.05 0 1 1-2.1 0zM44.534 2.21c-4.083.024-15.003 3.135-20.683 8.816-.415.415-1.1 1.069-1.894 1.828-1.415 1.352-3.592 3.434-4.73 4.67L29.23 29.529c1.237-1.14 3.318-3.315 4.67-4.73.76-.794 1.414-1.479 1.83-1.894 5.93-5.93 8.796-17.292 8.803-20.693zM27.837 31.105L15.652 18.919c-.054.02-.1.057-.156.071-2.803.768-5.368 1.778-7.428 2.9a21.751 21.751 0 0 1 4.118 2.057 2.1 2.1 0 0 1 .912 2.271c-.477 1.944.178 3.93 1.843 5.596 1.306 1.305 2.81 1.995 4.355 1.995.414 0 .832-.05 1.24-.151a2.103 2.103 0 0 1 2.272.912 21.743 21.743 0 0 1 2.058 4.117c1.12-2.06 2.13-4.626 2.899-7.428.015-.056.052-.101.072-.155zm9.378-6.715c-1.461 1.461-5.917 6.301-7.425 7.425-.996 3.635-2.988 8.928-5.94 11.879 0 0-.014-3.601-2.813-7.996a7.286 7.286 0 0 1-1.741.213c-2.053 0-4.105-.876-5.84-2.611-2.227-2.228-3.037-4.976-2.398-7.58-4.395-2.8-7.996-2.815-7.996-2.815 2.951-2.95 8.244-4.943 11.88-5.938 1.123-1.51 5.963-5.965 7.424-7.425C28.563 3.343 40.144.11 44.581.11c.85 0 1.437.118 1.675.357 1.484 1.484-1.66 16.541-9.041 23.922zM34.029 11.66a1.05 1.05 0 1 0 2.1.002 1.05 1.05 0 0 0-2.1-.002zm-2.1 0a3.15 3.15 0 1 1 6.3.002 3.15 3.15 0 0 1-6.3-.002zm-7.35 9.45a1.05 1.05 0 1 1 2.098 0 1.05 1.05 0 0 1-2.098 0zm-1.05-3.149a1.05 1.05 0 1 1-2.099.002 1.05 1.05 0 0 1 2.099-.002zm-9.815 20.797a14.29 14.29 0 0 1-3.829-3.051A14.063 14.063 0 0 1 8 33.034L4.204 42.55zm6.047-.523c.361 0 .723-.02 1.088-.062L.443 46.313l8.139-20.406c-.717 6.291 4.936 12.328 11.179 12.328z"/></g></g></svg>