<svg xmlns="http://www.w3.org/2000/svg" width="38" height="47" viewBox="0 0 38 47"><g><g><path fill="#ccc" d="M6.457 34.937c0-.58.47-1.05 1.05-1.05h18.9a1.05 1.05 0 1 1 0 2.1h-18.9c-.58 0-1.05-.47-1.05-1.05zm0-6.3c0-.58.47-1.05 1.05-1.05h23.1a1.05 1.05 0 0 1 0 2.1h-23.1c-.58 0-1.05-.47-1.05-1.05zm29.4-19.95h-8.4a2.1 2.1 0 0 1-2.1 2.1h-12.6a2.1 2.1 0 0 1-2.1-2.1h-8.4v4.2h33.6zm0 6.3h-33.6v29.4h33.6zm-23.1-6.3h12.6v-4.2h-12.6zm25.2 0v35.7a2.1 2.1 0 0 1-2.1 2.1h-33.6a2.1 2.1 0 0 1-2.1-2.1v-35.7c0-1.16.94-2.1 2.1-2.1h8.4v-2.1c0-1.16.94-2.1 2.1-2.1h4.2a2.1 2.1 0 1 1 4.2 0h4.2c1.16 0 2.1.94 2.1 2.1v2.1h8.4c1.16 0 2.1.94 2.1 2.1zm-31.5 13.65c0-.58.47-1.05 1.05-1.05h12.6a1.05 1.05 0 0 1 0 2.1h-12.6c-.58 0-1.05-.47-1.05-1.05z"/></g></g></svg>